<svg xmlns="http://www.w3.org/2000/svg" viewBox="0 0 274.93 229.87"><defs><style>.cls-1,.cls-3{fill:#ed3f03;}.cls-1{opacity:0.7;}.cls-2{fill:#424242;}</style></defs><g id="레이어_2" data-name="레이어 2"><g id="레이어_1-2" data-name="레이어 1"><rect class="cls-1" x="112.19" y="56.81" width="51.44" height="67.53"/><path class="cls-2" d="M80.56,209.68c-2.3-12-8.43-21.39-14.91-31.38-8.35-12.87-17-26.18-16.85-45.05l8,.06c-.12,16.47,7.5,28.21,15.56,40.63,6.62,10.2,13.46,20.75,16,34.23Z"/><path class="cls-2" d="M194.76,209.15l-7.85-1.56c2.69-13.51,9.79-24,16.65-34.19,8.34-12.36,16.21-24,16.08-40.44l8-.07c.15,18.9-8.79,32.16-17.45,45C203.48,187.82,197.13,197.22,194.76,209.15Z"/><path class="cls-3" d="M135.55,0C12.07,0,.19,17.06,0,28.43-.22,42,6,60.27,134.69,60.27c140.25,0,140.24-20.85,140.24-31.46C274.93,19.71,274.93,0,135.55,0ZM240.42,35.13c-6.92,2-19.22,3.51-36.11,4.59-18.75,1.48-41.44,2.36-65.9,2.36-64.36,0-116.53-6-116.53-13.46S74.05,15.16,138.41,15.16,255,21.19,255,28.62C255,31,249.67,33.2,240.42,35.13Z"/><path class="cls-2" d="M246.79,23.12a7.46,7.46,0,0,1,.88.28l-.82-.41Z"/><path class="cls-2" d="M231.11,153.29c-11-45,6.6-93.64,23.31-126.49l-6.75-3.4a7,7,0,0,0-.82-.41c-31.48,62-29.91,106.58-23.36,132.81,7.22,28.88,22.08,42.74,22.7,43.32l5.42-5.89C251.47,193.1,237.66,180.06,231.11,153.29Z"/><path class="cls-2" d="M194.83,208.37h-8c0-39.57-20.38-74.33-40.09-107.93-17.2-29.34-33.45-57-33.45-84.78h8c0,25.57,15.72,52.36,32.35,80.73C173,129.31,194.83,166.63,194.83,208.37Z"/><path class="cls-2" d="M32.66,198.66l-6.26-5,3.13,2.49-3.13-2.49c.13-.16,13.21-16.94,19.09-45.59,5.41-26.42,5.63-68.7-24.1-120.1l6.93-4C59.42,77.77,59,122.28,53.23,150.14,46.9,180.52,33.23,197.94,32.66,198.66Z"/><path class="cls-2" d="M134.87,229.87c-.18-29.32,16.39-61.38,33.93-95.31,17.95-34.71,38.29-74.06,43.41-116.22l7.94,1c-5.29,43.59-26,83.61-44.24,118.92-17.08,33-33.21,64.24-33,91.59Z"/><path class="cls-2" d="M219.68,133.69c-2.83-20.08-13.23-35.54-24.25-51.9-12.86-19.1-26.16-38.86-25.94-66.16l8,.06c-.2,24.83,11.84,42.71,24.58,61.63,11,16.4,22.45,33.35,25.54,55.25Z"/><path class="cls-2" d="M91.12,208.37h-8c0-46.69,23.28-86.18,43.82-121,15.95-27.06,29.72-50.43,29.72-71.7h8c0,23.46-14.29,47.69-30.83,75.76C113.81,125.37,91.12,163.86,91.12,208.37Z"/><path class="cls-2" d="M56.79,133.64l-8-.71c2.25-25,13.37-42,24.12-58.33,11.4-17.35,22.17-33.74,21.6-58.85l8-.18C103.16,43.17,91.2,61.38,79.63,79,69.42,94.53,58.86,110.61,56.79,133.64Z"/><path class="cls-2" d="M143.92,226.68h-8c0-30.66-17.63-64.17-36.29-99.66C81.39,92.35,62.53,56.49,57.83,19.33l7.94-1c4.52,35.73,23,70.93,40.94,105C125.85,159.68,143.92,194.05,143.92,226.68Z"/></g></g></svg>