<svg xmlns="http://www.w3.org/2000/svg" viewBox="0 0 274.93 229.87"><defs><style>.cls-1,.cls-3{fill:#ed3f03;}.cls-1{opacity:0.7;}.cls-2{fill:none;stroke:#fff;stroke-miterlimit:10;stroke-width:8px;}.cls-4{fill:#fff;}</style></defs><g id="레이어_2" data-name="레이어 2"><g id="레이어_1-2" data-name="레이어 1"><rect class="cls-1" x="112.19" y="56.81" width="51.44" height="67.53"/><path class="cls-2" d="M84.48,208.92C79,180.2,52.56,165,52.8,133.28"/><path class="cls-2" d="M190.83,208.37c5.72-28.72,33.06-43.75,32.81-75.45"/><path class="cls-3" d="M135.55,0C12.07,0,.19,17.06,0,28.43-.22,42,6,60.27,134.69,60.27c140.25,0,140.24-20.85,140.24-31.46C274.93,19.71,274.93,0,135.55,0ZM240.42,35.13c-6.92,2-19.22,3.51-36.11,4.59-18.75,1.48-41.44,2.36-65.9,2.36-64.36,0-116.53-6-116.53-13.46S74.05,15.16,138.41,15.16,255,21.19,255,28.62C255,31,249.67,33.2,240.42,35.13Z"/><path class="cls-4" d="M246.79,23.12a7.46,7.46,0,0,1,.88.28l-.82-.41Z"/><path class="cls-4" d="M231.11,153.29c-11-45,6.6-93.64,23.31-126.49l-6.75-3.4a7,7,0,0,0-.82-.41c-31.48,62-29.91,106.58-23.36,132.81,7.22,28.88,22.08,42.74,22.7,43.32l5.42-5.89C251.47,193.1,237.66,180.06,231.11,153.29Z"/><path class="cls-2" d="M190.83,208.37c0-76-73.54-135.38-73.54-192.71"/><path class="cls-2" d="M29.53,196.17S83.85,128,24.85,26"/><path class="cls-2" d="M138.87,229.84c-.37-58,67.13-127.14,77.31-211"/><path class="cls-2" d="M223.64,133.13c-6.41-45.49-50.53-69.07-50.15-117.47"/><path class="cls-2" d="M87.12,208.37c0-81.56,73.54-142,73.54-192.71"/><path class="cls-2" d="M52.8,133.28c4.53-50.35,46.87-67.2,45.74-117.62"/><path class="cls-2" d="M139.92,226.68c0-61.91-68.69-133.3-78.12-207.85"/></g></g></svg>